<svg width="25" height="20" viewBox="0 0 25 20" fill="none" xmlns="http://www.w3.org/2000/svg">
<path d="M23.9583 2.47481H19.4444V0.928053C19.4444 0.413757 18.98 0 18.4028 0H6.59722C6.01997 0 5.55556 0.413757 5.55556 0.928053V2.47481H1.04167C0.46441 2.47481 0 2.88856 0 3.40286V5.56832C0 6.9488 0.976562 8.36794 2.68663 9.46227C4.05382 10.3401 5.71615 10.8969 7.46094 11.0748C8.82378 13.0894 10.4167 13.9208 10.4167 13.9208V16.705H8.33333C6.80122 16.705 5.55556 17.5054 5.55556 18.8704V19.3344C5.55556 19.5896 5.78993 19.7985 6.07639 19.7985H18.9236C19.2101 19.7985 19.4444 19.5896 19.4444 19.3344V18.8704C19.4444 17.5054 18.1988 16.705 16.6667 16.705H14.5833V13.9208C14.5833 13.9208 16.1762 13.0894 17.5391 11.0748C19.2882 10.8969 20.9505 10.3401 22.3134 9.46227C24.0191 8.36794 25 6.9488 25 5.56832V3.40286C25 2.88856 24.5356 2.47481 23.9583 2.47481ZM4.3099 7.45536C3.25087 6.77479 2.77778 6.01688 2.77778 5.56832V4.94962H5.56424C5.60764 6.21022 5.81597 7.31615 6.11979 8.28287C5.46441 8.08179 4.85243 7.80338 4.3099 7.45536ZM22.2222 5.56832C22.2222 6.19089 21.454 6.96426 20.6901 7.45536C20.1476 7.80338 19.5312 8.08179 18.8759 8.28287C19.1797 7.31615 19.388 6.21022 19.4314 4.94962H22.2222V5.56832Z" fill="white"/>
</svg>
