<svg width="25" height="15" viewBox="0 0 25 15" fill="none" xmlns="http://www.w3.org/2000/svg">
<path d="M23.9583 0H3.81944C3.24414 0 2.77778 0.415496 2.77778 0.928051V1.2374H1.04167C0.466363 1.2374 0 1.6529 0 2.16545V12.6834C0 13.8793 1.08819 14.8488 2.43056 14.8488H22.9167C24.0673 14.8488 25 14.0178 25 12.9927V0.928051C25 0.415496 24.5336 0 23.9583 0ZM2.43056 12.9927C2.33847 12.9927 2.25015 12.9601 2.18503 12.9021C2.11992 12.8441 2.08333 12.7654 2.08333 12.6834V3.0935H2.77778V12.6834C2.77778 12.7654 2.7412 12.8441 2.67608 12.9021C2.61096 12.9601 2.52264 12.9927 2.43056 12.9927ZM12.6736 12.374H6.07639C5.78876 12.374 5.55556 12.1662 5.55556 11.91V11.6006C5.55556 11.3444 5.78876 11.1366 6.07639 11.1366H12.6736C12.9612 11.1366 13.1944 11.3444 13.1944 11.6006V11.91C13.1944 12.1662 12.9612 12.374 12.6736 12.374ZM21.7014 12.374H15.1042C14.8165 12.374 14.5833 12.1662 14.5833 11.91V11.6006C14.5833 11.3444 14.8165 11.1366 15.1042 11.1366H21.7014C21.989 11.1366 22.2222 11.3444 22.2222 11.6006V11.91C22.2222 12.1662 21.989 12.374 21.7014 12.374ZM12.6736 8.66181H6.07639C5.78876 8.66181 5.55556 8.45404 5.55556 8.19778V7.88843C5.55556 7.63218 5.78876 7.42441 6.07639 7.42441H12.6736C12.9612 7.42441 13.1944 7.63218 13.1944 7.88843V8.19778C13.1944 8.45404 12.9612 8.66181 12.6736 8.66181ZM21.7014 8.66181H15.1042C14.8165 8.66181 14.5833 8.45404 14.5833 8.19778V7.88843C14.5833 7.63218 14.8165 7.42441 15.1042 7.42441H21.7014C21.989 7.42441 22.2222 7.63218 22.2222 7.88843V8.19778C22.2222 8.45404 21.989 8.66181 21.7014 8.66181ZM21.7014 4.94961H6.07639C5.78876 4.94961 5.55556 4.74184 5.55556 4.48558V2.93883C5.55556 2.68257 5.78876 2.4748 6.07639 2.4748H21.7014C21.989 2.4748 22.2222 2.68257 22.2222 2.93883V4.48558C22.2222 4.74184 21.989 4.94961 21.7014 4.94961Z" fill="#40E9D2"/>
</svg>
