<svg width="12" height="23" viewBox="0 0 12 23" fill="none" xmlns="http://www.w3.org/2000/svg">
<path d="M5.85986 0C7.58574 0 8.98486 1.24652 8.98486 2.78415C8.98486 4.32178 7.58574 5.5683 5.85986 5.5683C4.13399 5.5683 2.73487 4.32178 2.73487 2.78415C2.73487 1.24652 4.13399 0 5.85986 0ZM11.6842 15.4076L9.34048 7.05516C9.27709 6.82928 9.13077 6.62876 8.92478 6.48546C8.71879 6.34217 8.46495 6.26434 8.20361 6.26434H7.64892C6.53999 6.71863 5.22754 6.73825 4.0708 6.26434H3.51612C3.25477 6.26434 3.00093 6.34217 2.79494 6.48546C2.58895 6.62876 2.44264 6.82928 2.37925 7.05516L0.0355041 15.4076C-0.149164 16.0656 0.40982 16.7049 1.17237 16.7049H3.90674V21.2291C3.90674 21.8058 4.4314 22.2732 5.07861 22.2732H6.64111C7.28833 22.2732 7.81299 21.8058 7.81299 21.2291V16.7049H10.5474C11.3086 16.7049 11.8692 16.0667 11.6842 15.4076Z" fill="#40E9D2"/>
</svg>
