<svg width="25" height="22" viewBox="0 0 25 22" fill="none" xmlns="http://www.w3.org/2000/svg">
<path d="M24.2188 10.7886C24.2188 16.747 18.7972 21.5772 12.1094 21.5772C5.42153 21.5772 0 16.747 0 10.7886C0 4.83021 5.42153 0 12.1094 0C18.7972 0 24.2188 4.83021 24.2188 10.7886ZM21.875 10.7886L21.8749 10.7763L20.6022 11.7656L17.5417 9.22073L18.3451 5.55109L20.0201 5.68472C18.8048 4.19625 17.0902 3.07071 15.1026 2.50291L15.7692 3.89234L12.1094 5.69882L8.44956 3.89238L9.11611 2.50296C7.13218 3.06971 5.41592 4.1939 4.19868 5.68477L5.88643 5.55109L6.67705 9.22073L3.6166 11.7656L2.34395 10.7763L2.3438 10.7886C2.3438 12.6599 3.00283 14.4407 4.22231 15.9215L4.59849 14.4469L8.75562 14.9014L10.5281 18.287L9.06807 19.0607C11.0311 19.6316 13.1838 19.6327 15.1507 19.0607L13.6906 18.287L15.4631 14.9014L19.6203 14.4469L19.9964 15.9215C21.216 14.4407 21.875 12.6599 21.875 10.7886ZM9.76064 13.8151L8.30098 9.84282L12.1094 7.38376L15.9178 9.84282L14.4714 13.8151H9.76064Z" fill="#40E9D2"/>
</svg>
