<svg width="170" height="30" viewBox="0 0 170 30" fill="none" xmlns="http://www.w3.org/2000/svg">
<path d="M49.7059 3.1709C50.369 3.1709 50.8885 3.31722 51.2645 3.60645C51.6371 3.89909 51.8251 4.29722 51.8251 4.80423C51.8251 5.05944 51.7875 5.30104 51.7157 5.52562L51.0047 8.04368C50.8749 8.51666 50.6664 8.85354 50.3758 9.0509C50.0921 9.25166 49.7127 9.35034 49.2411 9.35034C48.7831 9.35034 48.4208 9.25507 48.1473 9.06451C47.8807 8.87395 47.6859 8.5609 47.5594 8.12534L47.1219 6.58729C47.0467 6.31507 46.9579 6.13472 46.8485 6.04284C46.7391 5.95437 46.5101 5.90673 46.1649 5.90673H43.4442L41.9266 11.2695H42.4461C42.6991 11.2695 42.9178 11.2355 43.1024 11.1606C43.2938 11.0892 43.4989 10.9531 43.7176 10.7523L44.5653 10.0581C44.8729 9.7859 45.1463 9.59194 45.3856 9.47284C45.6317 9.35715 45.8915 9.2959 46.1649 9.2959C46.5101 9.2959 46.7972 9.39798 47.0262 9.59534C47.2518 9.79611 47.368 10.0717 47.368 10.4256C47.368 10.5719 47.3407 10.7455 47.286 10.9428L46.0829 15.0534C45.8094 15.9449 45.3207 16.3873 44.62 16.3873C44.0355 16.3873 43.5809 16.0878 43.2528 15.489L42.7743 14.577C42.6444 14.3252 42.5282 14.1619 42.4188 14.087C42.3094 14.0156 42.1454 13.9781 41.9266 13.9781H41.1336L39.9989 18.007C39.9613 18.1159 39.9442 18.2622 39.9442 18.4426C39.9442 18.6978 40.0023 18.9053 40.1219 19.0687C40.2381 19.232 40.4125 19.4056 40.6415 19.5859C40.8397 19.7492 40.9764 19.8819 41.0516 19.9806C41.1234 20.0725 41.161 20.1916 41.161 20.3345C41.161 20.6612 41.014 20.8892 40.7235 21.0151C40.4398 21.1444 40.016 21.2056 39.452 21.2056H32.6297C32.1546 21.2056 31.8026 21.1206 31.5633 20.947C31.3275 20.7769 31.2455 20.5353 31.3172 20.2256C31.3548 20.0623 31.4232 19.9364 31.5223 19.8445C31.6249 19.7458 31.7752 19.6335 31.9735 19.5042C32.2811 19.3239 32.5272 19.1333 32.7118 18.9326C32.8929 18.7352 33.0399 18.4256 33.1493 18.007L36.4852 6.34229C36.557 6.1075 36.5946 5.88972 36.5946 5.68895C36.5946 5.47118 36.5604 5.29423 36.4989 5.15812C36.4339 5.0152 36.3382 4.85868 36.2118 4.69534C36.0477 4.46055 35.9657 4.27 35.9657 4.12368C35.9657 4.06923 35.9828 3.97055 36.0204 3.82423C36.0921 3.58944 36.2562 3.4227 36.5126 3.32062C36.7655 3.22194 37.1415 3.1709 37.6336 3.1709H49.7059Z" fill="#E94057"/>
<path d="M58.3514 6.75C60.6551 6.75 62.3231 7.1175 63.3553 7.8525C64.3944 8.58069 64.9139 9.50965 64.9139 10.6428C64.9139 10.9899 64.8763 11.3063 64.8046 11.5956C64.5311 12.7865 63.7689 13.6372 62.5214 14.1544C61.2806 14.6717 59.8177 14.9303 58.1327 14.9303C57.285 14.9303 56.4852 14.8758 55.7401 14.7669C55.7196 15.7027 55.9759 16.3594 56.5057 16.7406C57.0321 17.1217 57.767 17.3122 58.7069 17.3122C59.1444 17.3122 59.558 17.2646 59.951 17.1625C60.3509 17.0638 60.8602 16.9141 61.4823 16.7133C61.9916 16.533 62.3368 16.4411 62.5214 16.4411C62.7128 16.4411 62.8085 16.5602 62.8085 16.795C62.8256 17.4211 62.5897 18.0847 62.0975 18.7822C61.6122 19.4832 60.8876 20.0753 59.9237 20.5653C58.9667 21.0485 57.808 21.2867 56.451 21.2867C54.4344 21.2867 52.787 20.7831 51.5018 19.7758C50.2167 18.7618 49.5741 17.285 49.5741 15.3522C49.5741 14.818 49.6459 14.1885 49.7928 13.4603C50.2372 11.2383 51.2284 9.5641 52.7596 8.43778C54.2977 7.31486 56.1639 6.75 58.3514 6.75ZM55.9315 13.1336C56.0033 13.154 56.1024 13.1608 56.2323 13.1608C56.9979 13.1608 57.5756 12.8138 57.9686 12.1128C58.3685 11.405 58.5599 10.6224 58.5428 9.75806C58.5223 9.25104 58.3788 8.99583 58.1053 8.99583C57.9037 8.99583 57.6678 9.15576 57.3944 9.47222C57.1278 9.79208 56.8646 10.2685 56.6014 10.9014C56.3348 11.5275 56.1127 12.2727 55.9315 13.1336Z" fill="#E94057"/>
<path d="M90.2356 17.4762C90.198 17.5408 90.1809 17.6463 90.1809 17.7892C90.1809 17.9185 90.2083 18.0172 90.263 18.0887C90.3245 18.1635 90.4134 18.1976 90.5227 18.1976C90.7415 18.1976 90.926 18.1023 91.0833 17.9117C91.2371 17.7212 91.343 17.6259 91.3977 17.6259C91.4866 17.6259 91.5618 17.6871 91.6165 17.8028C91.6712 17.9219 91.6985 18.0614 91.6985 18.2248C91.7156 18.7522 91.5413 19.266 91.179 19.7628C90.8133 20.2528 90.2801 20.6578 89.5794 20.9742C88.8855 21.2907 88.0515 21.4506 87.0774 21.4506C85.8811 21.4506 84.9309 21.1784 84.22 20.6339C83.5091 20.0827 83.1433 19.3409 83.1262 18.4153C83.1262 17.7552 83.2903 17.0066 83.6184 16.1695L85.1223 12.2767C85.2112 12.0419 85.2591 11.8514 85.2591 11.7051C85.2591 11.4703 85.1804 11.2831 85.0266 11.147C84.8694 11.0109 84.6848 10.9428 84.4661 10.9428C84.155 10.9428 83.8372 11.0789 83.5091 11.3512C83.1809 11.6234 82.8938 12.0453 82.6477 12.617L81.1438 17.4762C81.1062 17.5408 81.0891 17.6463 81.0891 17.7892C81.0891 17.9185 81.1199 18.0172 81.1848 18.0887C81.2464 18.1635 81.3352 18.1976 81.4446 18.1976C81.6633 18.1976 81.8479 18.1023 82.0051 17.9117C82.159 17.7212 82.2649 17.6259 82.3196 17.6259C82.4085 17.6259 82.4837 17.6871 82.5383 17.8028C82.593 17.9219 82.6204 18.0614 82.6204 18.2248C82.6375 18.7522 82.4632 19.266 82.1008 19.7628C81.7351 20.2528 81.2019 20.6578 80.5012 20.9742C79.8074 21.2907 78.97 21.4506 77.9856 21.4506C76.7893 21.4506 75.8391 21.1784 75.1282 20.6339C74.4241 20.0827 74.0652 19.3409 74.0481 18.4153C74.0481 17.7552 74.2122 17.0066 74.5403 16.1695L76.0305 12.2767C76.1194 12.0419 76.1673 11.8514 76.1673 11.7051C76.1673 11.4703 76.0886 11.2831 75.9348 11.147C75.7776 11.0109 75.5965 10.9428 75.388 10.9428C75.0769 10.9428 74.759 11.0755 74.4309 11.3376C74.1028 11.603 73.8294 12.0181 73.6106 12.5898L71.8196 18.3881C71.7444 18.5889 71.7102 18.7794 71.7102 18.9598C71.7102 19.1776 71.7547 19.3545 71.8469 19.4906C71.9358 19.6267 72.0657 19.7696 72.2298 19.9126C72.3562 20.0146 72.4485 20.1099 72.5032 20.1984C72.5579 20.2903 72.5647 20.3992 72.5305 20.5251C72.4553 20.7632 72.2844 20.9334 72.011 21.0423C71.7376 21.1512 71.3069 21.2056 70.7258 21.2056H64.5325C64.0608 21.2056 63.719 21.1307 63.5071 20.9742C63.2986 20.8211 63.22 20.6169 63.2747 20.3617C63.3499 20.1439 63.5413 19.9602 63.8489 19.8037C64.1223 19.6607 64.3513 19.4872 64.5325 19.2864C64.7136 19.0891 64.8674 18.7692 64.9973 18.3337L67.4172 10.5073C67.4514 10.4188 67.4719 10.2895 67.4719 10.1262C67.4719 9.93561 67.4309 9.78589 67.3489 9.677C67.2669 9.56811 67.1336 9.432 66.9524 9.26866C66.7678 9.12575 66.6414 8.99644 66.5696 8.88755C66.4944 8.77866 66.4876 8.63575 66.5422 8.452C66.6516 8.03686 67.219 7.67276 68.2512 7.36311C69.2903 7.04665 70.3704 6.88672 71.4915 6.88672C72.3836 6.88672 73.0842 7.13172 73.5969 7.62172C74.1165 8.10491 74.366 8.77186 74.3489 9.62255C75.094 8.58811 75.8801 7.87693 76.7005 7.48561C77.5276 7.08748 78.4231 6.88672 79.3801 6.88672C80.426 6.88672 81.2805 7.19297 81.9368 7.79866C82.5999 8.39755 82.969 9.18359 83.0442 10.1534C83.8269 8.92839 84.6609 8.08109 85.5462 7.60811C86.4383 7.12832 87.409 6.88672 88.4583 6.88672C89.5691 6.88672 90.4612 7.22359 91.138 7.89394C91.8216 8.55748 92.1634 9.41839 92.1634 10.4801C92.1634 11.0449 92.0711 11.5962 91.8899 12.1406L90.2356 17.4762Z" fill="#E94057"/>
<path d="M100.024 6.88635C101.08 6.88635 101.85 7.08712 102.335 7.48524C102.827 7.87656 103.073 8.4176 103.073 9.10496C103.073 9.5235 103.008 9.91823 102.882 10.2891L100.38 18.3877C100.325 18.6055 100.298 18.7961 100.298 18.9594C100.298 19.1976 100.342 19.3814 100.434 19.5175C100.523 19.6536 100.653 19.7863 100.817 19.9122C100.944 20.0313 101.036 20.13 101.091 20.2116C101.145 20.2933 101.152 20.3988 101.118 20.5247C101.026 20.7629 100.845 20.933 100.571 21.0419C100.298 21.1508 99.8773 21.2052 99.3134 21.2052H93.12C92.6483 21.2052 92.2997 21.1304 92.0809 20.9739C91.8622 20.8207 91.7904 20.6166 91.8622 20.3614C91.9374 20.1436 92.1288 19.9598 92.4364 19.8033C92.7098 19.6604 92.9354 19.4868 93.12 19.2861C93.3012 19.0887 93.455 18.7689 93.5848 18.3333L95.9501 10.5069C96.0048 10.3436 96.0321 10.2143 96.0321 10.1122C96.0321 9.91482 95.9843 9.75489 95.8954 9.6358C95.8031 9.5201 95.6664 9.3976 95.4852 9.2683C95.3007 9.12538 95.1742 8.99607 95.1024 8.88718C95.0272 8.7783 95.0204 8.63538 95.0751 8.45163C95.1845 8.03649 95.7518 7.67239 96.7841 7.36274C97.8231 7.04628 98.9032 6.88635 100.024 6.88635ZM101.856 0.897461C102.557 0.897461 103.145 1.12885 103.62 1.59163C104.092 2.05441 104.331 2.61927 104.331 3.27941C104.331 3.75239 104.208 4.21517 103.962 4.66774C103.716 5.1135 103.367 5.4776 102.923 5.75663C102.475 6.03906 101.983 6.17857 101.446 6.17857C100.752 6.17857 100.175 5.95399 99.7099 5.49802C99.2518 5.03524 99.016 4.46017 98.9989 3.76941C98.9989 3.31684 99.1117 2.87107 99.3407 2.43552C99.5766 1.99316 99.9149 1.62566 100.352 1.33302C100.79 1.04378 101.289 0.897461 101.856 0.897461Z" fill="#E94057"/>
<path d="M119.659 17.4762C119.622 17.5408 119.604 17.6463 119.604 17.7892C119.604 17.9185 119.635 18.0172 119.7 18.0887C119.762 18.1635 119.851 18.1976 119.96 18.1976C120.179 18.1976 120.363 18.1023 120.521 17.9117C120.674 17.7212 120.78 17.6259 120.835 17.6259C120.924 17.6259 120.999 17.6871 121.054 17.8028C121.108 17.9219 121.136 18.0614 121.136 18.2248C121.153 18.7522 120.979 19.266 120.616 19.7628C120.25 20.2528 119.717 20.6578 119.017 20.9742C118.323 21.2907 117.485 21.4506 116.501 21.4506C115.305 21.4506 114.355 21.1784 113.644 20.6339C112.939 20.0827 112.581 19.3409 112.563 18.4153C112.563 17.7552 112.728 17.0066 113.056 16.1695L114.546 12.2767C114.635 12.0419 114.683 11.8514 114.683 11.7051C114.683 11.4703 114.604 11.2831 114.45 11.147C114.293 11.0109 114.112 10.9428 113.903 10.9428C113.5 10.9428 113.117 11.13 112.755 11.5009C112.389 11.8752 112.126 12.3278 111.962 12.862L110.28 18.3881C110.205 18.5889 110.171 18.7794 110.171 18.9598C110.171 19.1776 110.215 19.3545 110.308 19.4906C110.396 19.6267 110.526 19.7696 110.69 19.9126C110.817 20.0146 110.909 20.1099 110.964 20.1984C111.019 20.2903 111.025 20.3992 110.991 20.5251C110.916 20.7632 110.745 20.9334 110.472 21.0423C110.198 21.1512 109.768 21.2056 109.187 21.2056H102.993C102.521 21.2056 102.18 21.1307 101.968 20.9742C101.759 20.8211 101.681 20.6169 101.735 20.3617C101.811 20.1439 102.002 19.9602 102.31 19.8037C102.583 19.6607 102.812 19.4872 102.993 19.2864C103.174 19.0891 103.328 18.7692 103.458 18.3337L105.878 10.5073C105.912 10.4188 105.933 10.2895 105.933 10.1262C105.933 9.93561 105.892 9.78589 105.81 9.677C105.728 9.56811 105.594 9.432 105.413 9.26866C105.229 9.12575 105.102 8.99644 105.03 8.88755C104.955 8.77866 104.948 8.63575 105.003 8.452C105.112 8.03686 105.68 7.67276 106.712 7.36311C107.751 7.04665 108.831 6.88672 109.952 6.88672C110.861 6.88672 111.579 7.13852 112.099 7.63533C112.625 8.12533 112.864 8.81609 112.81 9.70422C113.555 8.63575 114.344 7.90075 115.175 7.49922C116.002 7.09089 116.911 6.88672 117.896 6.88672C118.996 6.88672 119.885 7.22359 120.562 7.89394C121.245 8.55748 121.587 9.41839 121.587 10.4801C121.587 11.0449 121.498 11.5962 121.327 12.1406L119.659 17.4762Z" fill="#E94057"/>
<path d="M129.455 6.88635C130.511 6.88635 131.28 7.08712 131.765 7.48524C132.257 7.87656 132.503 8.4176 132.503 9.10496C132.503 9.5235 132.438 9.91823 132.312 10.2891L129.81 18.3877C129.755 18.6055 129.728 18.7961 129.728 18.9594C129.728 19.1976 129.772 19.3814 129.865 19.5175C129.954 19.6536 130.084 19.7863 130.248 19.9122C130.374 20.0313 130.466 20.13 130.521 20.2116C130.576 20.2933 130.583 20.3988 130.548 20.5247C130.456 20.7629 130.275 20.933 130.001 21.0419C129.728 21.1508 129.308 21.2052 128.744 21.2052H122.55C122.079 21.2052 121.73 21.1304 121.511 20.9739C121.292 20.8207 121.221 20.6166 121.292 20.3614C121.368 20.1436 121.559 19.9598 121.867 19.8033C122.14 19.6604 122.366 19.4868 122.55 19.2861C122.731 19.0887 122.885 18.7689 123.015 18.3333L125.38 10.5069C125.435 10.3436 125.462 10.2143 125.462 10.1122C125.462 9.91482 125.415 9.75489 125.326 9.6358C125.233 9.5201 125.097 9.3976 124.916 9.2683C124.731 9.12538 124.605 8.99607 124.533 8.88718C124.458 8.7783 124.451 8.63538 124.505 8.45163C124.615 8.03649 125.182 7.67239 126.214 7.36274C127.253 7.04628 128.334 6.88635 129.455 6.88635ZM131.287 0.897461C131.987 0.897461 132.575 1.12885 133.05 1.59163C133.522 2.05441 133.761 2.61927 133.761 3.27941C133.761 3.75239 133.638 4.21517 133.392 4.66774C133.146 5.1135 132.797 5.4776 132.353 5.75663C131.905 6.03906 131.413 6.17857 130.876 6.17857C130.183 6.17857 129.605 5.95399 129.14 5.49802C128.682 5.03524 128.446 4.46017 128.429 3.76941C128.429 3.31684 128.542 2.87107 128.771 2.43552C129.007 1.99316 129.345 1.62566 129.783 1.33302C130.22 1.04378 130.719 0.897461 131.287 0.897461Z" fill="#E94057"/>
<path d="M149.089 17.4762C149.052 17.5408 149.035 17.6463 149.035 17.7892C149.035 17.9185 149.065 18.0172 149.13 18.0887C149.192 18.1635 149.281 18.1976 149.39 18.1976C149.609 18.1976 149.793 18.1023 149.951 17.9117C150.104 17.7212 150.21 17.6259 150.265 17.6259C150.354 17.6259 150.429 17.6871 150.484 17.8028C150.539 17.9219 150.566 18.0614 150.566 18.2248C150.583 18.7522 150.409 19.266 150.046 19.7628C149.681 20.2528 149.147 20.6578 148.447 20.9742C147.753 21.2907 146.916 21.4506 145.931 21.4506C144.735 21.4506 143.785 21.1784 143.074 20.6339C142.37 20.0827 142.011 19.3409 141.994 18.4153C141.994 17.7552 142.158 17.0066 142.486 16.1695L143.976 12.2767C144.065 12.0419 144.113 11.8514 144.113 11.7051C144.113 11.4703 144.034 11.2831 143.88 11.147C143.723 11.0109 143.542 10.9428 143.333 10.9428C142.93 10.9428 142.547 11.13 142.185 11.5009C141.819 11.8752 141.556 12.3278 141.392 12.862L139.71 18.3881C139.635 18.5889 139.601 18.7794 139.601 18.9598C139.601 19.1776 139.646 19.3545 139.738 19.4906C139.827 19.6267 139.957 19.7696 140.121 19.9126C140.247 20.0146 140.339 20.1099 140.394 20.1984C140.449 20.2903 140.456 20.3992 140.421 20.5251C140.346 20.7632 140.175 20.9334 139.902 21.0423C139.628 21.1512 139.198 21.2056 138.617 21.2056H132.423C131.952 21.2056 131.61 21.1307 131.398 20.9742C131.189 20.8211 131.111 20.6169 131.166 20.3617C131.241 20.1439 131.432 19.9602 131.74 19.8037C132.013 19.6607 132.242 19.4872 132.423 19.2864C132.605 19.0891 132.758 18.7692 132.888 18.3337L135.308 10.5073C135.342 10.4188 135.363 10.2895 135.363 10.1262C135.363 9.93561 135.322 9.78589 135.24 9.677C135.158 9.56811 135.024 9.432 134.843 9.26866C134.659 9.12575 134.532 8.99644 134.46 8.88755C134.385 8.77866 134.378 8.63575 134.433 8.452C134.542 8.03686 135.11 7.67276 136.142 7.36311C137.181 7.04665 138.261 6.88672 139.382 6.88672C140.292 6.88672 141.009 7.13852 141.529 7.63533C142.055 8.12533 142.294 8.81609 142.24 9.70422C142.985 8.63575 143.774 7.90075 144.605 7.49922C145.432 7.09089 146.341 6.88672 147.326 6.88672C148.426 6.88672 149.315 7.22359 149.992 7.89394C150.675 8.55748 151.017 9.41839 151.017 10.4801C151.017 11.0449 150.928 11.5962 150.757 12.1406L149.089 17.4762Z" fill="#E94057"/>
<path d="M162.262 6.88672C164.723 6.88672 166.534 7.38693 167.703 8.38394C168.879 9.37415 169.467 10.6706 169.467 12.2767C169.467 12.8144 169.392 13.4167 169.248 14.087C168.899 15.5672 168.253 16.8637 167.307 17.9798C166.367 19.0891 165.215 19.9466 163.848 20.5523C162.48 21.1512 160.997 21.4506 159.404 21.4506C156.878 21.4506 155.016 20.9538 153.812 19.9534C152.609 18.9462 152.008 17.6123 152.008 15.9517C152.008 15.3903 152.08 14.7676 152.227 14.087C152.572 12.6817 153.228 11.4328 154.195 10.3439C155.159 9.24825 156.345 8.39755 157.75 7.79866C159.162 7.19297 160.666 6.88672 162.262 6.88672ZM162.18 9.29589C161.797 9.29589 161.39 9.63616 160.963 10.3167C160.542 10.9905 160.04 12.2631 159.459 14.1414C158.875 16.0198 158.584 17.3367 158.584 18.0887C158.584 18.4902 158.646 18.7556 158.775 18.8917C158.902 19.0278 159.076 19.0959 159.295 19.0959C159.678 19.1333 160.067 18.8101 160.471 18.1295C160.881 17.4421 161.394 16.1014 162.016 14.1142C162.58 12.3652 162.863 11.0891 162.863 10.2895C162.863 9.91859 162.802 9.65998 162.686 9.51366C162.566 9.37075 162.398 9.29589 162.18 9.29589Z" fill="#E94057"/>
<path d="M36.5774 24.3145C36.8782 24.3145 37.0286 24.437 37.0286 24.682C37.0286 24.7636 37.0081 24.8589 36.9739 24.9678L36.7825 25.6347C36.7175 25.8355 36.6389 25.975 36.55 26.0567C36.468 26.1383 36.345 26.1792 36.1809 26.1792C36.0442 26.1792 35.9382 26.1486 35.8665 26.0839C35.7913 26.0124 35.7195 25.9001 35.6477 25.7436L35.511 25.4033C35.4631 25.3047 35.4187 25.2366 35.3743 25.1992C35.3264 25.1549 35.2512 25.1311 35.1418 25.1311H34.9504L33.9114 28.7925C33.8909 28.8572 33.884 28.915 33.884 28.9695C33.884 29.0443 33.8909 29.1022 33.9114 29.1464C33.9387 29.1838 33.9695 29.2281 34.0071 29.2825C34.0515 29.3574 34.0754 29.4152 34.0754 29.4595C34.0754 29.4799 34.0686 29.5071 34.0618 29.5411C34.0344 29.616 33.9797 29.6704 33.8977 29.7045C33.8225 29.7317 33.7097 29.7453 33.5559 29.7453H31.6282C31.5188 29.7453 31.4299 29.7283 31.3684 29.6908C31.3035 29.6568 31.2727 29.6024 31.2727 29.5275C31.2727 29.5003 31.2795 29.4697 31.3 29.4322C31.3171 29.388 31.3411 29.3506 31.3684 29.3233C31.4026 29.2961 31.4504 29.2655 31.5051 29.2281C31.5872 29.1838 31.6555 29.1294 31.7102 29.0647C31.7649 29.0035 31.8127 28.9116 31.8606 28.7925L32.886 25.1311H32.6946C32.575 25.1311 32.4758 25.1549 32.3938 25.1992C32.3186 25.2366 32.2434 25.3047 32.1614 25.4033L31.8879 25.7436C31.7581 25.8899 31.635 25.9988 31.5188 26.0703C31.3992 26.1451 31.2727 26.1792 31.136 26.1792C31.0164 26.1792 30.9207 26.1486 30.8489 26.0839C30.7737 26.0226 30.7395 25.9308 30.7395 25.8117C30.7395 25.7572 30.7463 25.6994 30.7668 25.6347L30.9719 24.8861C31.0164 24.7432 31.0676 24.6275 31.1223 24.5458C31.177 24.4642 31.2522 24.4063 31.3547 24.3689C31.4539 24.3349 31.6008 24.3145 31.7922 24.3145H36.5774Z" fill="#36EEE0"/>
<path d="M44.4773 25.975C44.3953 26.2949 44.2312 26.5433 43.9851 26.7236C43.7459 26.8972 43.4451 27.0061 43.0828 27.0503C43.346 27.0707 43.5408 27.1456 43.6707 27.2817C43.7971 27.411 43.8621 27.5777 43.8621 27.7853C43.8621 27.867 43.8484 27.9724 43.8211 28.0983L43.739 28.4931C43.7288 28.5475 43.7254 28.5849 43.7254 28.602C43.7254 28.6768 43.739 28.7313 43.7664 28.7653C43.8006 28.8027 43.8484 28.8197 43.9031 28.8197C44.0193 28.8197 44.1013 28.8401 44.1492 28.8742C44.2039 28.9014 44.2244 28.9626 44.2175 29.0511C44.1902 29.1804 44.1218 29.3029 44.0125 29.4186C43.9031 29.5377 43.7459 29.6364 43.5476 29.7181C43.346 29.7895 43.1033 29.827 42.823 29.827C42.4675 29.827 42.1804 29.7521 41.9617 29.5956C41.7498 29.4322 41.6472 29.2008 41.6472 28.9014C41.6472 28.7857 41.6609 28.6632 41.6882 28.5339L41.825 28.0167C41.8421 27.9452 41.8523 27.867 41.8523 27.7853C41.8523 27.6696 41.8113 27.5811 41.7293 27.5267C41.6472 27.4722 41.5105 27.445 41.3191 27.445H41.0183L40.6355 28.7925C40.6253 28.8299 40.6218 28.8708 40.6218 28.915C40.6218 28.9967 40.6389 29.0647 40.6765 29.1192C40.7107 29.1736 40.762 29.2281 40.8269 29.2825C40.8816 29.3199 40.9226 29.3574 40.95 29.3914C40.9773 29.4288 40.991 29.4663 40.991 29.5003C40.991 29.6024 40.9431 29.6704 40.8543 29.7045C40.7722 29.7419 40.6424 29.7589 40.4715 29.7589H38.407C38.2703 29.7589 38.1677 29.7385 38.0925 29.6908C38.0208 29.6364 37.9968 29.5615 38.0242 29.4595C38.0344 29.4152 38.0515 29.3778 38.0789 29.3506C38.1062 29.3165 38.1541 29.2791 38.2156 29.2417C38.3045 29.1872 38.3797 29.1328 38.4343 29.0783C38.489 29.0171 38.5335 28.9218 38.5711 28.7925L39.5691 25.2808C39.5862 25.2094 39.5965 25.1413 39.5965 25.0767C39.5965 25.0154 39.5862 24.9644 39.5691 24.927C39.5486 24.8827 39.5281 24.8317 39.5007 24.7772C39.4461 24.7058 39.4187 24.6479 39.4187 24.6003C39.4187 24.5935 39.4221 24.5663 39.4324 24.5186C39.4597 24.4472 39.5076 24.3961 39.5828 24.3689C39.6546 24.3349 39.7674 24.3145 39.9246 24.3145H42.6726C43.0452 24.3145 43.3733 24.3757 43.657 24.4914C43.9373 24.6105 44.1526 24.7704 44.2996 24.9678C44.4534 25.1583 44.532 25.3829 44.532 25.6347C44.532 25.7538 44.5115 25.8661 44.4773 25.975ZM42.3855 25.8933C42.4129 25.7674 42.4265 25.6722 42.4265 25.6075C42.4265 25.3183 42.2659 25.172 41.948 25.172H41.6062L41.2371 26.6283H41.5925C41.801 26.6283 41.9651 26.5807 42.0847 26.4786C42.2112 26.3697 42.3103 26.1758 42.3855 25.8933Z" fill="#36EEE0"/>
<path d="M51.4476 28.7921C51.4203 28.8669 51.4066 28.9384 51.4066 29.0099C51.4066 29.0643 51.4135 29.1154 51.434 29.1596C51.451 29.197 51.4681 29.2276 51.4886 29.2549C51.5057 29.2821 51.5194 29.3025 51.5297 29.3093C51.5844 29.3638 51.6117 29.4182 51.6117 29.4726C51.6117 29.4829 51.6014 29.5101 51.5844 29.5543C51.5638 29.6292 51.5194 29.6836 51.4476 29.7176C51.3724 29.7449 51.2596 29.7585 51.1058 29.7585H49.1644C49.0448 29.7585 48.9525 29.7415 48.891 29.704C48.826 29.67 48.7953 29.6156 48.7953 29.5407C48.7953 29.5135 48.8021 29.4829 48.8226 29.4454C48.8397 29.4012 48.8636 29.3638 48.891 29.3365C48.9252 29.3093 48.973 29.2821 49.0277 29.2549C49.1097 29.2004 49.1781 29.146 49.2328 29.0915C49.2875 29.0303 49.3319 28.9282 49.3695 28.7921L49.5883 28.0979H48.3031L48.0844 28.5607C47.9921 28.7615 47.9476 28.9214 47.9476 29.0371C47.9476 29.1017 47.9545 29.1562 47.975 29.2004C48.0023 29.2379 48.0365 29.2787 48.0844 29.3229C48.1185 29.3604 48.1425 29.3978 48.1527 29.4318C48.1698 29.459 48.1732 29.4965 48.1664 29.5407C48.139 29.6224 48.0878 29.6836 48.016 29.7176C47.951 29.7449 47.8451 29.7585 47.7015 29.7585H46.4847C46.3583 29.7585 46.2626 29.7381 46.1976 29.6904C46.1259 29.6462 46.0883 29.5815 46.0883 29.4999C46.0883 29.4182 46.1224 29.3501 46.184 29.2957C46.2489 29.2413 46.3446 29.1868 46.4711 29.1324C46.6351 29.0507 46.765 28.969 46.8676 28.8874C46.9667 28.8057 47.0487 28.6968 47.1136 28.5607L48.5765 25.539C48.8021 25.0763 49.0687 24.7428 49.3695 24.5318C49.6703 24.3242 50.0702 24.2188 50.5726 24.2188C51.1263 24.2188 51.557 24.3344 51.8578 24.559C52.1654 24.7768 52.3226 25.0899 52.3226 25.4982C52.3226 25.6615 52.2953 25.8351 52.2406 26.0154L51.4476 28.7921ZM49.8344 27.2813L50.2719 25.8385C50.2889 25.7772 50.2992 25.7092 50.2992 25.6343C50.2992 25.5356 50.2719 25.4574 50.2172 25.4029C50.1625 25.3485 50.0804 25.3213 49.9711 25.3213C49.8412 25.3213 49.7284 25.3621 49.6293 25.4438C49.537 25.5186 49.4447 25.6547 49.3558 25.8521L48.6859 27.2813H49.8344Z" fill="#36EEE0"/>
<path d="M60.5292 24.3145C60.7548 24.3145 60.871 24.3893 60.871 24.5322C60.871 24.5697 60.8641 24.5969 60.8573 24.6139C60.847 24.6683 60.8231 24.716 60.7889 24.75C60.7513 24.7772 60.7069 24.8113 60.6522 24.8453C60.5702 24.8929 60.5018 24.9474 60.4471 25.0086C60.3925 25.0631 60.3446 25.1549 60.3104 25.2808L59.285 28.915C59.1927 29.2417 59.0731 29.4697 58.9296 29.5956C58.7928 29.7249 58.6014 29.7861 58.3553 29.7861C58.1366 29.7861 57.952 29.7249 57.8085 29.5956C57.6718 29.4697 57.5385 29.2757 57.412 29.0103L56.1678 26.4106L55.4843 28.7925C55.4637 28.8674 55.4569 28.9286 55.4569 28.9831C55.4569 29.0579 55.4637 29.1158 55.4843 29.16C55.5116 29.2076 55.5458 29.2519 55.5936 29.2961C55.6552 29.371 55.6893 29.4322 55.6893 29.4867C55.6893 29.5139 55.6825 29.5377 55.6757 29.5547C55.6552 29.6296 55.6073 29.684 55.5253 29.7181C55.4501 29.7453 55.3373 29.7589 55.1835 29.7589H54.2948C54.0692 29.7589 53.953 29.6874 53.953 29.5411C53.953 29.5071 53.9598 29.4799 53.9667 29.4595C53.9872 29.405 54.0145 29.3642 54.0487 29.337C54.076 29.3097 54.1171 29.2791 54.1718 29.2417C54.2538 29.1872 54.3221 29.1328 54.3768 29.0783C54.4315 29.0171 54.4794 28.9218 54.5272 28.7925L55.5663 25.1311L55.4296 24.8589C55.3749 24.75 55.3475 24.6547 55.3475 24.5731C55.3475 24.4029 55.4569 24.3145 55.6757 24.3145H56.8925C57.0634 24.3145 57.1967 24.3553 57.2889 24.437C57.3778 24.5186 57.4735 24.6615 57.576 24.8589L58.7792 27.2545L59.3397 25.2808C59.3568 25.2094 59.3671 25.1447 59.3671 25.0903C59.3671 25.029 59.3534 24.9746 59.326 24.927C59.3055 24.8725 59.2748 24.8249 59.2303 24.7772C59.1654 24.7058 59.1346 24.6479 59.1346 24.6003C59.1346 24.5663 59.1381 24.539 59.1483 24.5186C59.1654 24.4472 59.2098 24.3961 59.285 24.3689C59.3671 24.3349 59.4833 24.3145 59.6405 24.3145H60.5292Z" fill="#36EEE0"/>
<path d="M65.1591 24.2734C65.4667 24.2734 65.7504 24.3109 66.0067 24.3823C66.2699 24.4572 66.5331 24.5695 66.7997 24.7226L66.9911 24.5729C67.1278 24.4742 67.2372 24.4061 67.3192 24.3687C67.4012 24.3245 67.4969 24.3007 67.6063 24.3007C67.743 24.3007 67.8456 24.3347 67.9208 24.3959C67.9925 24.4504 68.0301 24.532 68.0301 24.6409C68.0301 24.6886 68.0233 24.7328 68.0165 24.777L67.661 25.9068C67.6234 26.0361 67.579 26.1245 67.5243 26.179C67.4696 26.2334 67.3807 26.2607 67.2645 26.2607C67.1449 26.2607 67.0389 26.2266 66.9501 26.1518C66.8578 26.0803 66.7176 25.9306 66.5262 25.7026C66.3348 25.4848 66.1605 25.3317 66.0067 25.2398C65.8495 25.1514 65.6923 25.1037 65.5282 25.1037C65.4086 25.1037 65.3094 25.1445 65.2274 25.2262C65.1454 25.3011 65.1044 25.3964 65.1044 25.512C65.1044 25.6414 65.1659 25.7639 65.2958 25.8795C65.4222 25.9884 65.6273 26.1314 65.911 26.3015C66.1913 26.4648 66.4237 26.6145 66.6083 26.7507C66.7997 26.8868 66.9569 27.0603 67.0868 27.2679C67.2235 27.4686 67.2919 27.6966 67.2919 27.9484C67.2919 28.122 67.2645 28.2955 67.2098 28.4657C67.0731 28.9012 66.8168 29.2347 66.4442 29.4593C66.0682 29.677 65.6273 29.7859 65.118 29.7859C64.7421 29.7859 64.4276 29.7451 64.1747 29.6634C63.9183 29.575 63.6551 29.4252 63.3817 29.2143L63.0946 29.4593C62.9579 29.5784 62.8417 29.66 62.7528 29.7043C62.6605 29.7417 62.5614 29.7587 62.452 29.7587C62.3324 29.7587 62.2333 29.7315 62.1512 29.677C62.0795 29.6158 62.0419 29.5273 62.0419 29.4184C62.0419 29.364 62.0555 29.3095 62.0829 29.2551L62.4794 28.0301C62.5238 27.894 62.5819 27.7987 62.6571 27.7443C62.7391 27.683 62.8383 27.649 62.9579 27.649C63.0843 27.649 63.1971 27.6966 63.2997 27.7851C63.3988 27.8668 63.5321 28.0233 63.6962 28.2479C63.8671 28.5031 64.0277 28.68 64.1747 28.7787C64.3285 28.8706 64.5096 28.9148 64.7216 28.9148C64.8651 28.9148 64.9813 28.8944 65.0634 28.8468C65.1454 28.8025 65.2001 28.7311 65.2274 28.629C65.2342 28.6018 65.2411 28.5609 65.2411 28.5065C65.2411 28.3704 65.1761 28.2479 65.0497 28.139C64.93 28.0301 64.7386 27.9008 64.4755 27.7443C64.1918 27.5809 63.9628 27.4312 63.7919 27.2951C63.6176 27.159 63.4672 26.9923 63.3407 26.7915C63.2108 26.5941 63.1493 26.3559 63.1493 26.0837C63.1493 25.8932 63.1766 25.7094 63.2313 25.5257C63.3475 25.1445 63.5868 24.8417 63.9423 24.6137C64.2977 24.3891 64.701 24.2734 65.1591 24.2734Z" fill="#36EEE0"/>
<path d="M75.0829 24.3145C75.2812 24.3145 75.4384 24.3621 75.5478 24.4506C75.664 24.5424 75.7255 24.6615 75.7255 24.8045C75.7255 24.8861 75.7152 24.9644 75.6981 25.0358L75.4794 25.7845C75.4418 25.9308 75.3769 26.0363 75.288 26.0975C75.206 26.152 75.0897 26.1792 74.9462 26.1792C74.8095 26.1792 74.7001 26.152 74.6181 26.0975C74.536 26.0431 74.4745 25.9478 74.4403 25.8117L74.3036 25.3489C74.2831 25.2672 74.2558 25.2128 74.2216 25.1856C74.1942 25.1583 74.1259 25.1447 74.0165 25.1447H73.1962L72.745 26.7645H72.8954C72.9672 26.7645 73.0321 26.7576 73.0868 26.7372C73.1483 26.71 73.2133 26.6658 73.2782 26.6011L73.538 26.397C73.6269 26.3153 73.7089 26.2574 73.7841 26.22C73.8559 26.186 73.9345 26.1656 74.0165 26.1656C74.1259 26.1656 74.2113 26.1996 74.2763 26.2608C74.348 26.3153 74.3856 26.397 74.3856 26.5058C74.3856 26.5535 74.3754 26.6079 74.3583 26.6692L73.9892 27.9078C73.9071 28.1732 73.7602 28.3025 73.5517 28.3025C73.3773 28.3025 73.2406 28.214 73.1415 28.0303L72.9911 27.7581C72.9535 27.6866 72.9159 27.6424 72.8817 27.622C72.8544 27.5947 72.8065 27.5811 72.745 27.5811H72.4989L72.1571 28.7925C72.1469 28.8299 72.1435 28.8742 72.1435 28.9286C72.1435 29.0035 72.1605 29.0647 72.1981 29.1192C72.2323 29.1668 72.2836 29.2145 72.3485 29.2689C72.4101 29.3165 72.4511 29.3574 72.4716 29.3914C72.4989 29.4186 72.5126 29.4561 72.5126 29.5003C72.5126 29.6024 72.4647 29.6704 72.3759 29.7045C72.2938 29.7419 72.164 29.7589 71.9931 29.7589H69.9286C69.7919 29.7589 69.6893 29.7385 69.6142 29.6908C69.5424 29.6364 69.5184 29.5615 69.5458 29.4595C69.556 29.4152 69.5731 29.3778 69.6005 29.3506C69.6278 29.3165 69.6757 29.2791 69.7372 29.2417C69.8261 29.1872 69.9013 29.1328 69.9559 29.0783C70.0106 29.0171 70.0551 28.9218 70.0927 28.7925L71.1044 25.2808C71.1215 25.2094 71.1317 25.1413 71.1317 25.0767C71.1317 25.0154 71.1215 24.961 71.1044 24.9133C71.0839 24.8691 71.0565 24.8249 71.0224 24.7772C70.9677 24.7058 70.9403 24.6479 70.9403 24.6003C70.9403 24.5935 70.9437 24.5663 70.954 24.5186C70.9813 24.4472 71.0292 24.3961 71.1044 24.3689C71.1864 24.3349 71.2992 24.3145 71.4462 24.3145H75.0829Z" fill="#36EEE0"/>
<path d="M82.2618 24.3145C82.4601 24.3145 82.6173 24.3621 82.7267 24.4506C82.8429 24.5424 82.9044 24.6615 82.9044 24.8045C82.9044 24.8861 82.8908 24.9644 82.8634 25.0358L82.6583 25.7845C82.6105 25.941 82.5524 26.0431 82.4806 26.0975C82.4054 26.152 82.3029 26.1792 82.1661 26.1792C82.0363 26.1792 81.9371 26.152 81.8654 26.0975C81.7902 26.0431 81.7321 25.9478 81.6876 25.8117L81.5646 25.3489C81.5372 25.2502 81.4996 25.1856 81.4552 25.1583C81.4176 25.1243 81.3458 25.1039 81.2365 25.1039H80.3751L79.965 26.5603H80.3341C80.3683 26.5603 80.4196 26.5331 80.4845 26.4786L80.7716 26.2336C80.8536 26.1622 80.922 26.1111 80.9767 26.0839C81.0382 26.0499 81.1134 26.0295 81.1954 26.0295C81.2946 26.0295 81.3766 26.0567 81.4415 26.1111C81.5031 26.1588 81.5372 26.22 81.5372 26.3017C81.5372 26.3289 81.5304 26.3629 81.5236 26.397L81.1818 27.5403C81.1544 27.6594 81.0997 27.7513 81.0177 27.8125C80.9357 27.867 80.8468 27.8942 80.7579 27.8942C80.6007 27.8942 80.4879 27.8125 80.4161 27.6492L80.2794 27.3633C80.2316 27.2817 80.17 27.2408 80.088 27.2408H79.7736L79.295 28.9695H80.006C80.1154 28.9695 80.2042 28.9524 80.2794 28.915C80.3615 28.8708 80.4469 28.7993 80.5392 28.6972L81.0314 28.1528C81.1202 28.0643 81.2023 27.9997 81.2775 27.9622C81.3595 27.918 81.4586 27.8942 81.5783 27.8942C81.6945 27.8942 81.7902 27.9214 81.8654 27.9758C81.9474 28.0303 81.9884 28.112 81.9884 28.2208C81.9884 28.2685 81.9782 28.3229 81.9611 28.3842L81.7286 29.2008C81.6637 29.4118 81.5714 29.5547 81.4552 29.6364C81.3458 29.7181 81.1818 29.7589 80.963 29.7589H77.0529C76.9332 29.7589 76.8444 29.7419 76.7794 29.7045C76.7179 29.6704 76.6837 29.616 76.6837 29.5411C76.6837 29.5139 76.694 29.4833 76.7111 29.4458C76.7384 29.3846 76.776 29.337 76.8204 29.3097C76.8683 29.2757 76.899 29.2519 76.9161 29.2417C76.9982 29.1872 77.0665 29.1328 77.1212 29.0783C77.1759 29.0239 77.2203 28.9286 77.2579 28.7925L78.2697 25.2808C78.297 25.2094 78.3107 25.1413 78.3107 25.0767C78.3107 25.0154 78.297 24.961 78.2697 24.9133C78.2491 24.8691 78.2218 24.8249 78.1876 24.7772C78.1398 24.7058 78.1193 24.6479 78.1193 24.6003C78.1193 24.5935 78.1227 24.5663 78.1329 24.5186C78.15 24.4472 78.1945 24.3961 78.2697 24.3689C78.3517 24.3349 78.4645 24.3145 78.6115 24.3145H82.2618Z" fill="#36EEE0"/>
<path d="M90.6573 25.975C90.5752 26.2949 90.4112 26.5433 90.1651 26.7236C89.9258 26.8972 89.625 27.0061 89.2627 27.0503C89.5259 27.0707 89.7207 27.1456 89.8506 27.2817C89.9771 27.411 90.042 27.5777 90.042 27.7853C90.042 27.867 90.0283 27.9724 90.001 28.0983L89.919 28.4931C89.9087 28.5475 89.9053 28.5849 89.9053 28.602C89.9053 28.6768 89.919 28.7313 89.9463 28.7653C89.9805 28.8027 90.0283 28.8197 90.083 28.8197C90.1992 28.8197 90.2813 28.8401 90.3291 28.8742C90.3838 28.9014 90.4043 28.9626 90.3975 29.0511C90.3701 29.1804 90.3018 29.3029 90.1924 29.4186C90.083 29.5377 89.9258 29.6364 89.7276 29.7181C89.5259 29.7895 89.2832 29.827 89.003 29.827C88.6475 29.827 88.3604 29.7521 88.1416 29.5956C87.9297 29.4322 87.8272 29.2008 87.8272 28.9014C87.8272 28.7857 87.8408 28.6632 87.8682 28.5339L88.0049 28.0167C88.022 27.9452 88.0323 27.867 88.0323 27.7853C88.0323 27.6696 87.9912 27.5811 87.9092 27.5267C87.8272 27.4722 87.6905 27.445 87.499 27.445H87.1983L86.8155 28.7925C86.8052 28.8299 86.8018 28.8708 86.8018 28.915C86.8018 28.9967 86.8189 29.0647 86.8565 29.1192C86.8906 29.1736 86.9419 29.2281 87.0069 29.2825C87.0615 29.3199 87.1026 29.3574 87.1299 29.3914C87.1572 29.4288 87.1709 29.4663 87.1709 29.5003C87.1709 29.6024 87.1231 29.6704 87.0342 29.7045C86.9522 29.7419 86.8223 29.7589 86.6514 29.7589H84.5869C84.4502 29.7589 84.3477 29.7385 84.2725 29.6908C84.2007 29.6364 84.1768 29.5615 84.2041 29.4595C84.2144 29.4152 84.2315 29.3778 84.2588 29.3506C84.2861 29.3165 84.334 29.2791 84.3955 29.2417C84.4844 29.1872 84.5596 29.1328 84.6143 29.0783C84.669 29.0171 84.7134 28.9218 84.751 28.7925L85.749 25.2808C85.7661 25.2094 85.7764 25.1413 85.7764 25.0767C85.7764 25.0154 85.7661 24.9644 85.749 24.927C85.7285 24.8827 85.708 24.8317 85.6807 24.7772C85.626 24.7058 85.5987 24.6479 85.5987 24.6003C85.5987 24.5935 85.6021 24.5663 85.6123 24.5186C85.6397 24.4472 85.6875 24.3961 85.7627 24.3689C85.8345 24.3349 85.9473 24.3145 86.1045 24.3145H88.8526C89.2251 24.3145 89.5533 24.3757 89.8369 24.4914C90.1172 24.6105 90.3325 24.7704 90.4795 24.9678C90.6333 25.1583 90.7119 25.3829 90.7119 25.6347C90.7119 25.7538 90.6914 25.8661 90.6573 25.975ZM88.5655 25.8933C88.5928 25.7674 88.6065 25.6722 88.6065 25.6075C88.6065 25.3183 88.4458 25.172 88.128 25.172H87.7862L87.417 26.6283H87.7725C87.981 26.6283 88.145 26.5807 88.2647 26.4786C88.3911 26.3697 88.4903 26.1758 88.5655 25.8933Z" fill="#36EEE0"/>
<path d="M101.415 24.3145C101.531 24.3145 101.623 24.3349 101.688 24.3689C101.75 24.4063 101.784 24.4574 101.784 24.5186C101.784 24.5458 101.774 24.5833 101.756 24.6275C101.736 24.682 101.715 24.7228 101.688 24.75C101.661 24.7704 101.613 24.7976 101.551 24.8317C101.459 24.8861 101.387 24.9474 101.333 25.0086C101.285 25.0631 101.244 25.1549 101.21 25.2808L100.212 28.7925C100.184 28.8572 100.171 28.9252 100.171 28.9967C100.171 29.0511 100.177 29.1022 100.198 29.1464C100.215 29.1838 100.242 29.2281 100.28 29.2825C100.297 29.3097 100.314 29.3438 100.335 29.3778C100.352 29.405 100.362 29.4322 100.362 29.4595C100.362 29.4799 100.355 29.5071 100.348 29.5411C100.321 29.616 100.266 29.6704 100.184 29.7045C100.109 29.7317 99.9996 29.7453 99.8561 29.7453H97.9283C97.8087 29.7453 97.7164 29.7283 97.6549 29.6908C97.59 29.6568 97.5592 29.6058 97.5592 29.5411C97.5592 29.5071 97.566 29.4697 97.5865 29.4322C97.6036 29.3982 97.6276 29.3642 97.6549 29.337C97.6891 29.3029 97.7164 29.2791 97.7369 29.2689C97.7643 29.2519 97.7814 29.2383 97.7916 29.2281C97.8805 29.1838 97.9557 29.1294 98.0104 29.0647C98.0651 29.0035 98.1095 28.9116 98.1471 28.7925L98.776 26.5875L96.6432 29.2008C96.4689 29.4186 96.3287 29.5683 96.2194 29.65C96.1168 29.7249 96.0006 29.7589 95.8639 29.7589C95.7272 29.7589 95.6212 29.7181 95.5494 29.6364C95.4742 29.5479 95.4059 29.4016 95.3444 29.2008L94.5787 26.6828L93.9772 28.7925C93.9498 28.8674 93.9362 28.9354 93.9362 28.9967C93.9362 29.0613 93.943 29.1158 93.9635 29.16C93.9806 29.2076 94.0114 29.2519 94.0592 29.2961C94.1036 29.371 94.1276 29.4288 94.1276 29.4731C94.1276 29.4833 94.1207 29.5105 94.1139 29.5547C94.0865 29.6296 94.0353 29.684 93.9635 29.7181C93.8883 29.7453 93.7755 29.7589 93.6217 29.7589H92.9381C92.8185 29.7589 92.7262 29.7419 92.6647 29.7045C92.61 29.6704 92.5826 29.616 92.5826 29.5411C92.5826 29.5139 92.5895 29.4833 92.5963 29.4458C92.6237 29.3846 92.6578 29.337 92.7057 29.3097C92.7604 29.2757 92.7911 29.2519 92.8014 29.2417C92.8834 29.1872 92.9518 29.1328 93.0065 29.0783C93.0612 29.0239 93.109 28.9286 93.1569 28.7925L94.1549 25.2672L94.0182 24.8317C93.9908 24.75 93.9772 24.6751 93.9772 24.6003C93.9772 24.5016 94.0079 24.4301 94.0729 24.3825C94.1344 24.3383 94.2301 24.3145 94.36 24.3145H95.6315C95.7955 24.3145 95.9186 24.3519 96.0006 24.4233C96.0826 24.4982 96.1442 24.6207 96.192 24.7908L97.0123 27.4995L99.2408 24.75C99.3776 24.5799 99.5143 24.4642 99.651 24.4097C99.7877 24.3485 99.9689 24.3145 100.198 24.3145H101.415Z" fill="#36EEE0"/>
<path d="M108.104 28.7921C108.077 28.8669 108.063 28.9384 108.063 29.0099C108.063 29.0643 108.07 29.1154 108.09 29.1596C108.108 29.197 108.125 29.2276 108.145 29.2549C108.162 29.2821 108.176 29.3025 108.186 29.3093C108.241 29.3638 108.268 29.4182 108.268 29.4726C108.268 29.4829 108.258 29.5101 108.241 29.5543C108.22 29.6292 108.176 29.6836 108.104 29.7176C108.029 29.7449 107.916 29.7585 107.762 29.7585H105.821C105.701 29.7585 105.609 29.7415 105.547 29.704C105.483 29.67 105.452 29.6156 105.452 29.5407C105.452 29.5135 105.459 29.4829 105.479 29.4454C105.496 29.4012 105.52 29.3638 105.547 29.3365C105.582 29.3093 105.63 29.2821 105.684 29.2549C105.766 29.2004 105.835 29.146 105.889 29.0915C105.944 29.0303 105.988 28.9282 106.026 28.7921L106.245 28.0979H104.96L104.741 28.5607C104.649 28.7615 104.604 28.9214 104.604 29.0371C104.604 29.1017 104.611 29.1562 104.631 29.2004C104.659 29.2379 104.693 29.2787 104.741 29.3229C104.775 29.3604 104.799 29.3978 104.809 29.4318C104.826 29.459 104.83 29.4965 104.823 29.5407C104.796 29.6224 104.744 29.6836 104.672 29.7176C104.608 29.7449 104.502 29.7585 104.358 29.7585H103.141C103.015 29.7585 102.919 29.7381 102.854 29.6904C102.782 29.6462 102.745 29.5815 102.745 29.4999C102.745 29.4182 102.779 29.3501 102.84 29.2957C102.905 29.2413 103.001 29.1868 103.128 29.1324C103.292 29.0507 103.422 28.969 103.524 28.8874C103.623 28.8057 103.705 28.6968 103.77 28.5607L105.233 25.539C105.459 25.0763 105.725 24.7428 106.026 24.5318C106.327 24.3242 106.727 24.2188 107.229 24.2188C107.783 24.2188 108.214 24.3344 108.514 24.559C108.822 24.7768 108.979 25.0899 108.979 25.4982C108.979 25.6615 108.952 25.8351 108.897 26.0154L108.104 28.7921ZM106.491 27.2813L106.928 25.8385C106.945 25.7772 106.956 25.7092 106.956 25.6343C106.956 25.5356 106.928 25.4574 106.874 25.4029C106.819 25.3485 106.737 25.3213 106.628 25.3213C106.498 25.3213 106.385 25.3621 106.286 25.4438C106.193 25.5186 106.101 25.6547 106.012 25.8521L105.342 27.2813H106.491Z" fill="#36EEE0"/>
<path d="M117.063 25.975C116.981 26.2949 116.817 26.5433 116.571 26.7236C116.331 26.8972 116.031 27.0061 115.668 27.0503C115.931 27.0707 116.126 27.1456 116.256 27.2817C116.383 27.411 116.448 27.5777 116.448 27.7853C116.448 27.867 116.434 27.9724 116.407 28.0983L116.324 28.4931C116.314 28.5475 116.311 28.5849 116.311 28.602C116.311 28.6768 116.324 28.7313 116.352 28.7653C116.386 28.8027 116.434 28.8197 116.489 28.8197C116.605 28.8197 116.687 28.8401 116.735 28.8742C116.789 28.9014 116.81 28.9626 116.803 29.0511C116.776 29.1804 116.707 29.3029 116.598 29.4186C116.489 29.5377 116.331 29.6364 116.133 29.7181C115.931 29.7895 115.689 29.827 115.408 29.827C115.053 29.827 114.766 29.7521 114.547 29.5956C114.335 29.4322 114.233 29.2008 114.233 28.9014C114.233 28.7857 114.246 28.6632 114.274 28.5339L114.41 28.0167C114.428 27.9452 114.438 27.867 114.438 27.7853C114.438 27.6696 114.397 27.5811 114.315 27.5267C114.233 27.4722 114.096 27.445 113.905 27.445H113.604L113.221 28.7925C113.211 28.8299 113.207 28.8708 113.207 28.915C113.207 28.9967 113.224 29.0647 113.262 29.1192C113.296 29.1736 113.347 29.2281 113.412 29.2825C113.467 29.3199 113.508 29.3574 113.535 29.3914C113.563 29.4288 113.576 29.4663 113.576 29.5003C113.576 29.6024 113.529 29.6704 113.44 29.7045C113.358 29.7419 113.228 29.7589 113.057 29.7589H110.992C110.856 29.7589 110.753 29.7385 110.678 29.6908C110.606 29.6364 110.582 29.5615 110.61 29.4595C110.62 29.4152 110.637 29.3778 110.664 29.3506C110.692 29.3165 110.74 29.2791 110.801 29.2417C110.89 29.1872 110.965 29.1328 111.02 29.0783C111.074 29.0171 111.119 28.9218 111.157 28.7925L112.155 25.2808C112.172 25.2094 112.182 25.1413 112.182 25.0767C112.182 25.0154 112.172 24.9644 112.155 24.927C112.134 24.8827 112.114 24.8317 112.086 24.7772C112.032 24.7058 112.004 24.6479 112.004 24.6003C112.004 24.5935 112.008 24.5663 112.018 24.5186C112.045 24.4472 112.093 24.3961 112.168 24.3689C112.24 24.3349 112.353 24.3145 112.51 24.3145H115.258C115.631 24.3145 115.959 24.3757 116.242 24.4914C116.523 24.6105 116.738 24.7704 116.885 24.9678C117.039 25.1583 117.117 25.3829 117.117 25.6347C117.117 25.7538 117.097 25.8661 117.063 25.975ZM114.971 25.8933C114.998 25.7674 115.012 25.6722 115.012 25.6075C115.012 25.3183 114.851 25.172 114.533 25.172H114.192L113.823 26.6283H114.178C114.386 26.6283 114.551 26.5807 114.67 26.4786C114.797 26.3697 114.896 26.1758 114.971 25.8933Z" fill="#36EEE0"/>
<path d="M125.017 24.2871C125.243 24.2871 125.434 24.362 125.592 24.5049C125.745 24.6512 125.824 24.852 125.824 25.1038C125.824 25.3862 125.735 25.6176 125.564 25.7979C125.4 25.9715 125.198 26.0566 124.963 26.0566C124.805 26.0566 124.676 26.0293 124.566 25.9749C124.457 25.9204 124.351 25.832 124.252 25.7027L123.554 26.3016L124.347 28.6427C124.392 28.7788 124.443 28.8877 124.498 28.9693C124.559 29.051 124.635 29.1327 124.717 29.2143C124.778 29.2688 124.819 29.3164 124.84 29.3504C124.867 29.3879 124.881 29.4321 124.881 29.4866C124.881 29.5682 124.84 29.6363 124.758 29.6907C124.682 29.7384 124.546 29.7588 124.347 29.7588H123.267C123.001 29.7588 122.806 29.7009 122.679 29.5818C122.55 29.4661 122.447 29.2688 122.365 28.9966L121.955 27.6218L121.709 27.826L121.449 28.7924C121.422 28.8672 121.408 28.9353 121.408 28.9966C121.408 29.0612 121.415 29.1157 121.435 29.1599C121.452 29.2075 121.483 29.2518 121.531 29.296C121.575 29.3709 121.599 29.4287 121.599 29.4729C121.599 29.4832 121.593 29.5104 121.586 29.5546C121.558 29.6295 121.507 29.6839 121.435 29.7179C121.36 29.7452 121.247 29.7588 121.094 29.7588H119.166C119.046 29.7588 118.957 29.7418 118.892 29.7043C118.831 29.6703 118.797 29.6159 118.797 29.541C118.797 29.5138 118.807 29.4832 118.824 29.4457C118.851 29.3845 118.889 29.3368 118.933 29.3096C118.981 29.2756 119.012 29.2518 119.029 29.2416C119.111 29.1871 119.179 29.1327 119.234 29.0782C119.289 29.0238 119.333 28.9285 119.371 28.7924L120.383 25.2807C120.4 25.2093 120.41 25.1412 120.41 25.0766C120.41 25.0153 120.4 24.9643 120.383 24.9268C120.362 24.8826 120.335 24.8316 120.301 24.7771C120.253 24.7057 120.232 24.6478 120.232 24.6002C120.232 24.5934 120.236 24.5661 120.246 24.5185C120.263 24.447 120.307 24.396 120.383 24.3688C120.465 24.3347 120.577 24.3143 120.724 24.3143H122.652C122.768 24.3143 122.861 24.3347 122.926 24.3688C122.987 24.4062 123.021 24.4572 123.021 24.5185C123.021 24.5457 123.011 24.5832 122.994 24.6274C122.973 24.6648 122.953 24.7022 122.926 24.7363C122.898 24.7635 122.871 24.7873 122.844 24.8043C122.816 24.8145 122.796 24.8247 122.789 24.8316C122.697 24.886 122.625 24.9472 122.57 25.0085C122.515 25.0629 122.468 25.1548 122.433 25.2807L122.092 26.4921L124.265 24.6274C124.409 24.5015 124.539 24.4164 124.648 24.3688C124.764 24.3143 124.887 24.2871 125.017 24.2871Z" fill="#36EEE0"/>
<path d="M134.035 24.3145C134.336 24.3145 134.487 24.437 134.487 24.682C134.487 24.7636 134.466 24.8589 134.432 24.9678L134.24 25.6347C134.176 25.8355 134.097 25.975 134.008 26.0567C133.926 26.1383 133.803 26.1792 133.639 26.1792C133.502 26.1792 133.396 26.1486 133.324 26.0839C133.249 26.0124 133.177 25.9001 133.106 25.7436L132.969 25.4033C132.921 25.3047 132.877 25.2366 132.832 25.1992C132.784 25.1549 132.709 25.1311 132.6 25.1311H132.408L131.369 28.7925C131.349 28.8572 131.342 28.915 131.342 28.9695C131.342 29.0443 131.349 29.1022 131.369 29.1464C131.397 29.1838 131.427 29.2281 131.465 29.2825C131.51 29.3574 131.533 29.4152 131.533 29.4595C131.533 29.4799 131.527 29.5071 131.52 29.5411C131.492 29.616 131.438 29.6704 131.356 29.7045C131.281 29.7317 131.168 29.7453 131.014 29.7453H129.086C128.977 29.7453 128.888 29.7283 128.826 29.6908C128.761 29.6568 128.731 29.6024 128.731 29.5275C128.731 29.5003 128.738 29.4697 128.758 29.4322C128.775 29.388 128.799 29.3506 128.826 29.3233C128.861 29.2961 128.908 29.2655 128.963 29.2281C129.045 29.1838 129.114 29.1294 129.168 29.0647C129.223 29.0035 129.271 28.9116 129.319 28.7925L130.344 25.1311H130.153C130.033 25.1311 129.934 25.1549 129.852 25.1992C129.777 25.2366 129.701 25.3047 129.619 25.4033L129.346 25.7436C129.216 25.8899 129.093 25.9988 128.977 26.0703C128.857 26.1451 128.731 26.1792 128.594 26.1792C128.474 26.1792 128.379 26.1486 128.307 26.0839C128.232 26.0226 128.198 25.9308 128.198 25.8117C128.198 25.7572 128.204 25.6994 128.225 25.6347L128.43 24.8861C128.474 24.7432 128.526 24.6275 128.58 24.5458C128.635 24.4642 128.71 24.4063 128.813 24.3689C128.912 24.3349 129.059 24.3145 129.25 24.3145H134.035Z" fill="#36EEE0"/>
<path d="M136.644 28.1123C136.863 28.1123 137.044 28.1872 137.191 28.3301C137.345 28.4764 137.424 28.6567 137.424 28.8745C137.424 29.0208 137.383 29.1672 137.301 29.3101C137.225 29.4462 137.116 29.5619 136.972 29.6504C136.836 29.7422 136.678 29.7865 136.508 29.7865C136.296 29.7865 136.115 29.715 135.961 29.5687C135.814 29.4156 135.742 29.2352 135.742 29.0242C135.742 28.8813 135.776 28.7384 135.851 28.6023C135.933 28.4594 136.043 28.3403 136.179 28.2484C136.316 28.1599 136.47 28.1123 136.644 28.1123Z" fill="#36EEE0"/>
<path d="M142.959 29.813C142.494 29.813 142.077 29.7279 141.715 29.5544C141.349 29.3842 141.058 29.1324 140.84 28.8058C140.628 28.4791 140.525 28.081 140.525 27.608C140.525 27.2813 140.58 26.9274 140.689 26.5463C140.942 25.7296 141.322 25.141 141.824 24.7769C142.333 24.4162 142.88 24.2324 143.465 24.2324C143.772 24.2324 144.046 24.2835 144.285 24.3821C144.531 24.474 144.753 24.6067 144.955 24.7769L145.174 24.5999C145.327 24.491 145.454 24.4162 145.556 24.3685C145.656 24.3243 145.768 24.3005 145.898 24.3005C146.035 24.3005 146.144 24.3345 146.226 24.3958C146.308 24.4502 146.349 24.5387 146.349 24.6544C146.349 24.719 146.336 24.7769 146.308 24.8313L145.857 26.1108C145.802 26.2571 145.738 26.3626 145.666 26.4238C145.601 26.4783 145.502 26.5055 145.365 26.5055C145.228 26.5055 145.112 26.4578 145.023 26.3558C144.931 26.2571 144.825 26.0835 144.709 25.8385C144.579 25.5867 144.476 25.4166 144.394 25.3349C144.312 25.2533 144.189 25.2124 144.025 25.2124C143.806 25.2124 143.591 25.3485 143.383 25.6208C143.171 25.893 142.986 26.3081 142.822 26.8594C142.675 27.3221 142.603 27.7101 142.603 28.0163C142.603 28.2885 142.651 28.4927 142.754 28.6288C142.863 28.7649 143.003 28.833 143.177 28.833C143.43 28.833 143.642 28.7751 143.806 28.656C143.977 28.5403 144.152 28.3838 144.326 28.1933C144.435 28.0776 144.521 27.9891 144.586 27.9346C144.657 27.8734 144.729 27.8394 144.804 27.8394C144.904 27.8394 145.01 27.8904 145.119 27.9891C145.228 28.0912 145.283 28.1865 145.283 28.2749C145.283 28.4042 145.18 28.5948 144.982 28.8466C144.781 29.0916 144.504 29.3162 144.148 29.5135C143.8 29.7143 143.403 29.813 142.959 29.813Z" fill="#36EEE0"/>
<path d="M151.759 24.1914C152.449 24.1914 152.989 24.3547 153.372 24.6814C153.762 25.0081 153.96 25.4777 153.96 26.0834C153.96 26.376 153.912 26.6822 153.823 27.0089C153.659 27.6282 153.403 28.1488 153.058 28.5742C152.719 28.9927 152.309 29.3092 151.827 29.527C151.352 29.7447 150.836 29.8536 150.282 29.8536C149.599 29.8536 149.059 29.6971 148.669 29.3772C148.286 29.0506 148.095 28.5844 148.095 27.9753C148.095 27.6963 148.139 27.373 148.231 27.0089C148.396 26.41 148.645 25.903 148.983 25.4845C149.329 25.0591 149.735 24.7359 150.2 24.5181C150.672 24.3003 151.191 24.1914 151.759 24.1914ZM151.608 24.9945C151.444 24.9945 151.297 25.0625 151.171 25.1986C151.041 25.3279 150.911 25.5389 150.774 25.8384C150.645 26.131 150.508 26.5427 150.364 27.077C150.146 27.8392 150.036 28.3632 150.036 28.6422C150.036 28.8158 150.063 28.9417 150.118 29.0233C150.18 29.0982 150.282 29.1322 150.419 29.1322C150.583 29.1322 150.727 29.0642 150.856 28.9281C150.993 28.792 151.12 28.581 151.239 28.2883C151.366 27.9991 151.506 27.5942 151.663 27.077C151.872 26.3249 151.978 25.7941 151.978 25.4845C151.978 25.3143 151.943 25.1918 151.882 25.117C151.827 25.0353 151.735 24.9945 151.608 24.9945Z" fill="#36EEE0"/>
<path d="M164.572 24.3145C164.689 24.3145 164.781 24.3349 164.846 24.3689C164.907 24.4063 164.942 24.4574 164.942 24.5186C164.942 24.5458 164.931 24.5833 164.914 24.6275C164.894 24.682 164.873 24.7228 164.846 24.75C164.819 24.7704 164.771 24.7976 164.709 24.8317C164.617 24.8861 164.545 24.9474 164.49 25.0086C164.443 25.0631 164.402 25.1549 164.367 25.2808L163.369 28.7925C163.342 28.8572 163.328 28.9252 163.328 28.9967C163.328 29.0511 163.335 29.1022 163.356 29.1464C163.373 29.1838 163.4 29.2281 163.438 29.2825C163.455 29.3097 163.472 29.3438 163.492 29.3778C163.51 29.405 163.52 29.4322 163.52 29.4595C163.52 29.4799 163.513 29.5071 163.506 29.5411C163.479 29.616 163.424 29.6704 163.342 29.7045C163.267 29.7317 163.157 29.7453 163.014 29.7453H161.086C160.967 29.7453 160.874 29.7283 160.813 29.6908C160.748 29.6568 160.717 29.6058 160.717 29.5411C160.717 29.5071 160.724 29.4697 160.744 29.4322C160.761 29.3982 160.785 29.3642 160.813 29.337C160.847 29.3029 160.874 29.2791 160.895 29.2689C160.922 29.2519 160.939 29.2383 160.949 29.2281C161.038 29.1838 161.114 29.1294 161.168 29.0647C161.223 29.0035 161.267 28.9116 161.305 28.7925L161.934 26.5875L159.801 29.2008C159.627 29.4186 159.487 29.5683 159.377 29.65C159.275 29.7249 159.158 29.7589 159.022 29.7589C158.885 29.7589 158.779 29.7181 158.707 29.6364C158.632 29.5479 158.564 29.4016 158.502 29.2008L157.737 26.6828L157.135 28.7925C157.108 28.8674 157.094 28.9354 157.094 28.9967C157.094 29.0613 157.101 29.1158 157.121 29.16C157.138 29.2076 157.169 29.2519 157.217 29.2961C157.261 29.371 157.285 29.4288 157.285 29.4731C157.285 29.4833 157.279 29.5105 157.272 29.5547C157.244 29.6296 157.193 29.684 157.121 29.7181C157.046 29.7453 156.933 29.7589 156.78 29.7589H156.096C155.976 29.7589 155.884 29.7419 155.823 29.7045C155.768 29.6704 155.74 29.616 155.74 29.5411C155.74 29.5139 155.747 29.4833 155.754 29.4458C155.781 29.3846 155.816 29.337 155.864 29.3097C155.918 29.2757 155.949 29.2519 155.959 29.2417C156.041 29.1872 156.11 29.1328 156.164 29.0783C156.219 29.0239 156.267 28.9286 156.315 28.7925L157.313 25.2672L157.176 24.8317C157.149 24.75 157.135 24.6751 157.135 24.6003C157.135 24.5016 157.166 24.4301 157.231 24.3825C157.292 24.3383 157.388 24.3145 157.518 24.3145H158.789C158.953 24.3145 159.076 24.3519 159.158 24.4233C159.24 24.4982 159.302 24.6207 159.35 24.7908L160.17 27.4995L162.399 24.75C162.535 24.5799 162.672 24.4642 162.809 24.4097C162.946 24.3485 163.127 24.3145 163.356 24.3145H164.572Z" fill="#36EEE0"/>
<path fill-rule="evenodd" clip-rule="evenodd" d="M14.1929 1.79102C18.0381 1.79102 21.5176 3.34268 24.0366 5.85053C26.5591 8.36178 28.1177 11.8258 28.1177 15.6539C28.1177 19.4821 26.5591 22.9461 24.0366 25.4573C21.5176 27.9652 18.0381 29.5168 14.1929 29.5168C10.3477 29.5168 6.86475 27.9652 4.3457 25.4573C1.82666 22.9461 0.268066 19.4821 0.268066 15.6539C0.268066 11.8258 1.82666 8.36178 4.3457 5.85053C6.86475 3.34268 10.3477 1.79102 14.1929 1.79102ZM25.4756 9.21247C25.3867 9.20907 25.2944 9.20567 25.2056 9.20227C24.7065 8.54553 24.0366 8.0215 23.3394 7.51449C23.9238 8.18483 24.4399 8.88581 24.7715 9.65484L24.898 15.0006L26.5317 19.7543C25.9199 21.5782 24.9116 23.2251 23.606 24.5862L20.646 25.522L17.751 28.1115C16.6196 28.4314 15.4268 28.6015 14.1929 28.6015C13.0615 28.6015 11.9644 28.4586 10.9185 28.1898L9.23682 25.1953C7.64404 24.4467 6.05469 23.6981 4.46191 22.9495C3.99365 22.1805 3.66553 21.34 3.40234 20.4689C3.39893 21.357 3.54248 22.2485 3.90137 23.1366C3.87402 23.2455 3.84668 23.3578 3.81934 23.4667C2.17188 21.2991 1.19092 18.5973 1.18408 15.6709C1.63525 15.9193 2.08301 16.1678 2.53076 16.4128C2.67432 17.3349 2.9375 18.2571 3.23145 19.1792C3.14941 18.2434 3.10156 17.3077 3.22461 16.3753L5.9624 14.024C5.94873 12.2341 5.93506 10.4443 5.91797 8.65102C6.36914 7.9024 7.03565 7.26268 7.78418 6.66379C6.96387 7.10275 6.18457 7.60977 5.51465 8.30053H3.48779C3.93555 7.654 4.44141 7.05171 4.99512 6.49706C6.87842 4.62213 9.33936 3.31886 12.084 2.8731C11.6738 3.45838 11.2603 4.04365 10.8467 4.62893C10.1699 5.03386 9.51025 5.50345 8.88135 6.0581C9.61279 5.71782 10.3408 5.4524 11.0723 5.30949L16.1719 7.75949C17.5596 7.06872 18.9473 6.37796 20.335 5.6872C21.1655 5.92539 21.7637 6.3031 22.3447 6.69442C21.9209 6.13296 21.3877 5.59192 20.5161 5.12914L20.1504 4.14234C21.3501 4.75824 22.4404 5.55449 23.3872 6.49706C24.1973 7.30352 24.9014 8.21546 25.4756 9.21247ZM16.1719 8.3856C16.0488 9.91345 15.8096 11.4447 15.314 12.9725L10.8501 15.5655C9.51025 15.3715 8.16699 14.9768 6.82715 14.286C7.94483 15.4634 9.12744 16.3311 10.3716 16.8891L11.9473 21.8776C11.3765 23.1571 10.5562 24.1881 9.48975 24.9707C10.8467 24.3684 12.019 23.5212 13.0068 22.4255L18.0962 22.7487L20.3384 25.1171L19.043 22.1873L20.916 17.5697C22.1875 16.9402 23.3975 16.1235 24.5459 15.1197C23.2642 15.7254 21.9312 16.1269 20.523 16.2324L16.6743 13.1937C16.7563 11.591 16.5854 9.98831 16.1719 8.3856Z" fill="#36EEE0"/>
</svg>
